<svg width="36" height="36" viewBox="0 0 36 36" fill="none" xmlns="http://www.w3.org/2000/svg">
<g clip-path="url(#clip0_2008_154036)">
<path d="M24.6628 26.0709L32.6027 34.0109H24.6628V26.0709ZM34.0093 9.93218L26.067 1.98964H34.0093V9.93218ZM24.6628 11.3377V3.39803L32.6025 11.3377H24.6628ZM32.6002 22.6739H24.6628V14.7365L32.6002 22.6739ZM21.2653 11.337H13.3258V3.39752L21.2653 11.337ZM22.6724 9.92959V9.93166L14.7298 1.98886H22.6724V9.92959ZM22.6724 13.3269V21.2678L14.7301 13.3258H22.6724V13.3269ZM26.0681 24.6638H34.0109V32.6066L26.0681 24.6638ZM35.419 22.6739H35.4167L26.0694 13.3269H35.9982V0.000770359H24.6628V-1.43051e-06H13.3258H11.337H0V11.337V12.7451L0.290366 13.0355L0.580732 13.3258L9.92882 22.6739H0V36H13.3258H22.6739H24.6628H35.9997V23.2546L35.419 22.6739Z" fill="#00FFB2"/>
</g>
<defs>
<clipPath id="clip0_2008_154036">
<rect width="36" height="36" fill="white"/>
</clipPath>
</defs>
</svg>
